<svg xmlns="http://www.w3.org/2000/svg" width="40" height="24">
	<path fill="#fff" d="M38.48 24H1.52C.75 24 0 23.28 0 22.5v-21C0 .72.75 0 1.52 0h36.96C39.25 0 40 .72 40 1.5v21c0 .78-.75 1.5-1.52 1.5z"/>
	<path d="M16 5.772v5.456c0 .423.366.772.81.772h17.38c.444 0 .81-.348.81-.772V5.772C35 5.35 34.634 5 34.19 5H16.81c-.444 0-.81.348-.81.772zm-1-.142c0-.9.75-1.63 1.66-1.63h17.68c.917 0 1.66.737 1.66 1.63v5.74c0 .9-.75 1.63-1.66 1.63H16.66c-.917 0-1.66-.737-1.66-1.63V5.63z"/>
	<circle cx="19.5" cy="8.5" r="1.5" fill="#828282"/>
	<circle cx="27.5" cy="8.5" r="1.5" fill="#828282"/>
	<circle cx="23.5" cy="8.5" r="1.5" fill="#828282"/>
	<circle cx="31.5" cy="8.5" r="1.5" fill="#828282"/>
	<path fill="#828282" d="M4 7.833C4 7.47 4.476 7 4.89 7h6.22c.414 0 .89.47.89.833v3.334c0 .364-.476.833-.89.833H4.89c-.414 0-.89-.47-.89-.833V7.833zM4 18.5c0-.828.668-1.5 1.5-1.5h29c.828 0 1.5.666 1.5 1.5 0 .828-.668 1.5-1.5 1.5h-29c-.828 0-1.5-.666-1.5-1.5z"/>
</svg>