<svg xmlns="http://www.w3.org/2000/svg" xml:space="preserve" width="304.1" height="62.3">
	<g fill="#898989">
		<path d="M99.1 33.8c1.4 2.7 1.6 5.3.3 8L96 49.3c-1.9 4.3-5.1 6.4-9.5 6.4H53.8L59.6 43l5.1-11.2 8.8 6.6-2.1 4.6H82c.3-.6.1-1.4-.5-2.5l-9.1-16.8c-1.4-2.7-1.6-5.3-.3-8l3.4-7.5C77.4 4 80.6 1.8 85 1.8h32.8L112 14.5l-5.1 11.2-8.9-6.6 2.1-4.6H89.5c-.3.6-.1 1.4.5 2.5l9.1 16.8zm41.1-11.5 9.4-20.6h16.8l-24.7 53.9H125l9.4-20.6H125l-9.4 20.6H98.8l24.7-53.9h16.8l-9.4 20.6h9.3zm42.9-7.8-5.3 11.6h6.6c1.9 0 3.3-1 4.2-3l2.6-5.6c.9-2 .4-3-1.4-3h-6.7zm-9.7 24.3H172l-7.7 16.8h-16.8l24.7-53.9h36.5c4.4 0 5.6 2.1 3.6 6.4l-11.1 24.3c-1.9 4.2-5.1 6.4-9.5 6.4h-1.1l2.4 16.8h-17.1l-2.5-16.8zm48.9-3.7-3.6 7.9h22.5l-5.8 12.7h-39.3l24.7-53.9H260l-5.8 12.7h-22.5l-3.6 7.9h18.7L241 35.1h-18.7zm54.4-20.6-13 28.4h5.1c1.9 0 4.8-1.1 7-5.8l7.7-16.8c2.1-4.6.2-5.9-1.6-5.9h-5.2v.1zM241 55.7l24.7-53.9h30.2c4.4 0 11.5 3.1 6.7 13.4l-12.7 27.7c-3.3 7.1-14.4 12.8-18.7 12.8H241z"/>
		<path fill-rule="evenodd" d="M0 0h23.1l7.3 12.5h-4.6l11.5 21.3 10.4-21.3h-4.6L50.4 0h20.7L37.8 62.3 0 0z" clip-rule="evenodd"/>
	</g>
</svg>