<svg xmlns="http://www.w3.org/2000/svg" xml:space="preserve" viewBox="0 0 196 196">
	<path d="M194.9 98.1c0-11.5-.1-23 .1-34.5.1-3.8-1.1-6.6-3.8-9.3-16.7-16.5-33.3-33.2-49.8-49.8C139 2.1 136.5 1 133 1c-23.2.1-46.3.1-69.5 0-3.8 0-6.6 1.2-9.3 3.9-16.4 16.5-32.9 33-49.4 49.4C2.1 57 1 59.9 1 63.6c.1 23 .1 46 0 69 0 3.6 1 6.3 3.6 8.8 16.6 16.4 33.1 32.9 49.5 49.5 2.8 2.8 5.7 4.1 9.7 4.1 23-.1 46-.1 69 0 3.4 0 6-.9 8.4-3.3 16.8-16.9 33.6-33.8 50.5-50.5 2.3-2.3 3.3-4.7 3.3-8-.1-11.7-.1-23.4-.1-35.1zm-16.4 37c-14.4 14.3-28.8 28.7-43.1 43.1-2 2.1-4.2 2.8-7 2.8-10.2-.1-20.3-.1-30.5-.1s-20.3-.1-30.5.1c-2.7 0-4.7-.8-6.6-2.7-14.3-14.4-28.7-28.8-43.1-43.1-1.9-1.9-2.7-3.8-2.7-6.6.1-20.5.1-41 0-61.5 0-2.7.9-4.7 2.8-6.5 14.3-14.2 28.7-28.6 43-43 1.9-1.9 3.9-2.6 6.6-2.6 20.3.1 40.7.1 61 0 2.9 0 5 .8 7 2.9 14.3 14.4 28.7 28.8 43.1 43.1 1.7 1.7 2.6 3.6 2.5 6.1-.1 20.7-.1 41.3 0 62 .1 2.5-.8 4.3-2.5 6z" class="st0"/>
	<path d="M127.4 111.1c3.5-5 6.9-10 10.5-15 3.8-5.4 8.7-6.8 13.2-3.8 4.7 3.1 5.3 8.2 1.6 14-.8 1.3-1.7 2.5-2.5 3.7-6.6 9.6-13.7 18.9-19 29.3-9.2 17.9-24.8 21.7-42.9 20.3-2.6-.2-5.3-.7-7.8-1.4-14.7-3.7-23.2-13.9-23.4-28.9-.3-20.8-.1-41.6-.1-62.5 0-5.3 3.1-8.7 7.5-8.8 4.5 0 7.4 3.3 7.5 8.7.1 7.5 0 15 .1 22.5 0 1.3-.6 3.5 1.6 3.5 1.7 0 1.3-2.3 1.3-3.6.1-10 0-20 .1-30 0-1.7-.1-3.4.2-5 .8-4.2 4.4-7.5 7.9-7 4.3.6 7 3.2 7.1 7.7.2 10.3.2 20.7.2 31 0 1.3 0 2.7.1 4 .1 1.2-.4 3.1 1.6 2.9 1.6-.1 1.2-1.8 1.2-2.9.1-12.3.1-24.7.2-37 0-3-.1-6 .1-9 .3-4.5 3.4-7.7 7.1-7.6 4.1.2 8 3 8 11.5 0 12.3-.1 24.7.1 37 0 2.6-.9 7.4 1.5 7.5 2.5.1 1.3-5.1 1.4-7.8.2-10.2.1-20.3.1-30.5 0-5.9 2.7-9.4 7.2-9.5 4.7-.1 7.8 3.6 7.8 9.5v57c.3.2.3.2.5.2z" class="st0"/>
</svg>